<svg width="279" height="217" viewBox="0 0 279 217" fill="none" xmlns="http://www.w3.org/2000/svg">
<path d="M139.5 192C206.603 192 261 188.418 261 184C261 179.582 206.603 176 139.5 176C72.3974 176 18 179.582 18 184C18 188.418 72.3974 192 139.5 192Z" fill="#EAEBF5"/>
<path d="M149.555 183.494H78.596C77.4721 183.494 76.5576 182.58 76.5576 181.456V167.781C76.5576 166.657 77.4721 165.742 78.596 165.742H149.555C150.679 165.742 151.593 166.657 151.593 167.781V181.456C151.586 182.587 150.679 183.494 149.555 183.494Z" fill="#E8B022"/>
<path opacity="0.2" d="M114.072 182.419C113.799 182.419 113.583 182.203 113.583 181.93V167.236C113.583 166.964 113.799 166.747 114.072 166.747C114.344 166.747 114.56 166.964 114.56 167.236V181.923C114.56 182.203 114.344 182.419 114.072 182.419Z" fill="white"/>
<path opacity="0.2" d="M78.6527 182.419C78.3805 182.419 78.1641 182.203 78.1641 181.93V167.236C78.1641 166.964 78.3805 166.747 78.6527 166.747C78.925 166.747 79.1414 166.964 79.1414 167.236V181.923C79.1414 182.203 78.925 182.419 78.6527 182.419Z" fill="white"/>
<path opacity="0.2" d="M82.2689 182.419C81.9967 182.419 81.7803 182.203 81.7803 181.93V167.236C81.7803 166.964 81.9967 166.747 82.2689 166.747C82.5412 166.747 82.7576 166.964 82.7576 167.236V181.923C82.7576 182.203 82.5342 182.419 82.2689 182.419Z" fill="white"/>
<path opacity="0.2" d="M87.4994 182.419C87.2271 182.419 87.0107 182.203 87.0107 181.93V167.236C87.0107 166.964 87.2271 166.747 87.4994 166.747C87.7716 166.747 87.988 166.964 87.988 167.236V181.923C87.988 182.203 87.7716 182.419 87.4994 182.419Z" fill="white"/>
<path opacity="0.2" d="M93.2719 182.419C92.9996 182.419 92.7832 182.203 92.7832 181.93V167.236C92.7832 166.964 92.9996 166.747 93.2719 166.747C93.5441 166.747 93.7605 166.964 93.7605 167.236V181.923C93.7605 182.203 93.5441 182.419 93.2719 182.419Z" fill="white"/>
<path opacity="0.2" d="M99.5824 182.419C99.3102 182.419 99.0938 182.203 99.0938 181.93V167.236C99.0938 166.964 99.3102 166.747 99.5824 166.747C99.8546 166.747 100.071 166.964 100.071 167.236V181.923C100.071 182.203 99.8546 182.419 99.5824 182.419Z" fill="white"/>
<path opacity="0.2" d="M106.437 182.419C106.165 182.419 105.948 182.203 105.948 181.93V167.236C105.948 166.964 106.165 166.747 106.437 166.747C106.709 166.747 106.926 166.964 106.926 167.236V181.923C106.926 182.203 106.709 182.419 106.437 182.419Z" fill="white"/>
<path opacity="0.2" d="M149.495 166.747C149.767 166.747 149.983 166.964 149.983 167.236V181.923C149.983 182.196 149.767 182.412 149.495 182.412C149.222 182.412 149.006 182.196 149.006 181.923V167.236C149.006 166.971 149.222 166.747 149.495 166.747Z" fill="white"/>
<path opacity="0.2" d="M145.884 166.747C146.156 166.747 146.373 166.964 146.373 167.236V181.923C146.373 182.196 146.156 182.412 145.884 182.412C145.612 182.412 145.396 182.196 145.396 181.923V167.236C145.396 166.971 145.612 166.747 145.884 166.747Z" fill="white"/>
<path opacity="0.2" d="M140.648 166.747C140.92 166.747 141.136 166.964 141.136 167.236V181.923C141.136 182.196 140.92 182.412 140.648 182.412C140.376 182.412 140.159 182.196 140.159 181.923V167.236C140.159 166.971 140.383 166.747 140.648 166.747Z" fill="white"/>
<path opacity="0.2" d="M134.884 166.747C135.157 166.747 135.373 166.964 135.373 167.236V181.923C135.373 182.196 135.157 182.412 134.884 182.412C134.612 182.412 134.396 182.196 134.396 181.923V167.236C134.389 166.971 134.612 166.747 134.884 166.747Z" fill="white"/>
<path opacity="0.2" d="M128.566 166.747C128.838 166.747 129.054 166.964 129.054 167.236V181.923C129.054 182.196 128.838 182.412 128.566 182.412C128.294 182.412 128.077 182.196 128.077 181.923V167.236C128.077 166.971 128.301 166.747 128.566 166.747Z" fill="white"/>
<path opacity="0.2" d="M121.718 166.747C121.99 166.747 122.207 166.964 122.207 167.236V181.923C122.207 182.196 121.99 182.412 121.718 182.412C121.446 182.412 121.229 182.196 121.229 181.923V167.236C121.229 166.971 121.446 166.747 121.718 166.747Z" fill="white"/>
<path opacity="0.2" d="M151.595 167.334V181.924C151.595 182.796 150.889 183.501 150.017 183.501H78.1365C77.4384 183.501 76.845 183.048 76.6426 182.419H115.972V166.755H122.597V182.419H124.523V166.755H129.438V182.419H130.08V166.755H135.316V182.419H135.741V166.755H151.483C151.553 166.929 151.595 167.125 151.595 167.334Z" fill="white"/>
<path opacity="0.2" d="M150.009 165.749H78.1353C77.2627 165.749 76.5576 166.454 76.5576 167.326V181.916C76.5576 182.09 76.5855 182.258 76.6414 182.412H78.1841V166.747H79.0916V182.418H81.3324V166.754H82.7565V182.418H86.4702V166.754H88.4946V182.418H91.5941V166.754H93.7581V182.418H96.8575V166.754H100.222V182.418H101.772V166.754H106.903V182.418H107.678V166.754H151.475C151.251 166.16 150.679 165.749 150.009 165.749Z" fill="white"/>
<path d="M162.109 165.944H91.1497C90.0258 165.944 89.1113 165.029 89.1113 163.905V150.23C89.1113 149.106 90.0258 148.192 91.1497 148.192H162.109C163.233 148.192 164.147 149.106 164.147 150.23V163.905C164.14 165.036 163.233 165.944 162.109 165.944Z" fill="#E8B022"/>
<path opacity="0.2" d="M126.625 164.869C126.353 164.869 126.137 164.653 126.137 164.38V149.693C126.137 149.421 126.353 149.204 126.625 149.204C126.898 149.204 127.114 149.421 127.114 149.693V164.38C127.114 164.653 126.898 164.869 126.625 164.869Z" fill="white"/>
<path opacity="0.2" d="M91.2045 164.869C90.9322 164.869 90.7158 164.652 90.7158 164.38V149.693C90.7158 149.421 90.9322 149.204 91.2045 149.204C91.4767 149.204 91.6931 149.421 91.6931 149.693V164.38C91.6931 164.652 91.4767 164.869 91.2045 164.869Z" fill="white"/>
<path opacity="0.2" d="M94.8207 164.869C94.5484 164.869 94.332 164.652 94.332 164.38V149.693C94.332 149.421 94.5484 149.204 94.8207 149.204C95.0929 149.204 95.3093 149.421 95.3093 149.693V164.38C95.3093 164.652 95.086 164.869 94.8207 164.869Z" fill="white"/>
<path opacity="0.2" d="M100.05 164.869C99.7779 164.869 99.5615 164.652 99.5615 164.38V149.693C99.5615 149.421 99.7779 149.204 100.05 149.204C100.322 149.204 100.539 149.421 100.539 149.693V164.38C100.539 164.652 100.322 164.869 100.05 164.869Z" fill="white"/>
<path opacity="0.2" d="M105.823 164.869C105.55 164.869 105.334 164.652 105.334 164.38V149.693C105.334 149.421 105.55 149.204 105.823 149.204C106.095 149.204 106.311 149.421 106.311 149.693V164.38C106.311 164.652 106.095 164.869 105.823 164.869Z" fill="white"/>
<path opacity="0.2" d="M112.133 164.869C111.861 164.869 111.645 164.652 111.645 164.38V149.693C111.645 149.421 111.861 149.204 112.133 149.204C112.405 149.204 112.622 149.421 112.622 149.693V164.38C112.622 164.652 112.405 164.869 112.133 164.869Z" fill="white"/>
<path opacity="0.2" d="M118.989 164.869C118.716 164.869 118.5 164.652 118.5 164.38V149.693C118.5 149.421 118.716 149.204 118.989 149.204C119.261 149.204 119.477 149.421 119.477 149.693V164.38C119.477 164.652 119.261 164.869 118.989 164.869Z" fill="white"/>
<path opacity="0.2" d="M162.045 149.197C162.318 149.197 162.534 149.414 162.534 149.686V164.373C162.534 164.646 162.318 164.862 162.045 164.862C161.773 164.862 161.557 164.646 161.557 164.373V149.686C161.557 149.421 161.773 149.197 162.045 149.197Z" fill="white"/>
<path opacity="0.2" d="M158.435 149.197C158.707 149.197 158.924 149.414 158.924 149.686V164.373C158.924 164.646 158.707 164.862 158.435 164.862C158.163 164.862 157.946 164.646 157.946 164.373V149.686C157.946 149.421 158.163 149.197 158.435 149.197Z" fill="white"/>
<path opacity="0.2" d="M153.2 149.197C153.472 149.197 153.688 149.414 153.688 149.686V164.373C153.688 164.646 153.472 164.862 153.2 164.862C152.927 164.862 152.711 164.646 152.711 164.373V149.686C152.711 149.421 152.934 149.197 153.2 149.197Z" fill="white"/>
<path opacity="0.2" d="M147.435 149.197C147.707 149.197 147.924 149.414 147.924 149.686V164.373C147.924 164.646 147.707 164.862 147.435 164.862C147.163 164.862 146.946 164.646 146.946 164.373V149.686C146.939 149.421 147.163 149.197 147.435 149.197Z" fill="white"/>
<path opacity="0.2" d="M141.117 149.197C141.389 149.197 141.605 149.414 141.605 149.686V164.373C141.605 164.646 141.389 164.862 141.117 164.862C140.844 164.862 140.628 164.646 140.628 164.373V149.686C140.628 149.421 140.851 149.197 141.117 149.197Z" fill="white"/>
<path opacity="0.2" d="M134.27 149.197C134.542 149.197 134.759 149.414 134.759 149.686V164.373C134.759 164.646 134.542 164.862 134.27 164.862C133.998 164.862 133.781 164.646 133.781 164.373V149.686C133.781 149.421 133.998 149.197 134.27 149.197Z" fill="white"/>
<path opacity="0.2" d="M164.148 149.784V164.373C164.148 165.246 163.443 165.951 162.571 165.951H90.6902C89.9921 165.951 89.3987 165.497 89.1963 164.869H128.526V149.204H135.15V164.869H137.077V149.204H141.991V164.869H142.634V149.204H147.869V164.869H148.295V149.204H164.037C164.106 149.379 164.148 149.574 164.148 149.784Z" fill="white"/>
<path opacity="0.2" d="M162.562 148.206H90.689C89.8164 148.206 89.1113 148.911 89.1113 149.783V164.373C89.1113 164.548 89.1393 164.715 89.1951 164.869H90.7378V149.197H91.6453V164.869H93.8861V149.204H95.3102V164.869H99.0239V149.204H101.048V164.869H104.148V149.204H106.312V164.869H109.411V149.204H112.776V164.869H114.326V149.204H119.457V164.869H120.231V149.204H164.028C163.805 148.611 163.233 148.206 162.562 148.206Z" fill="white"/>
<path d="M104.666 144.021L50.3117 179.881L45.3469 183.157C44.4342 183.764 43.2101 183.513 42.6051 182.593L35.0158 171.089C34.4094 170.176 34.662 168.945 35.5733 168.346L50.1795 158.7L94.894 129.203C95.8068 128.596 97.0377 128.849 97.6442 129.761L105.233 141.266C105.83 142.19 105.572 143.413 104.666 144.021Z" fill="#E8B022"/>
<path opacity="0.2" d="M74.4091 162.685C74.1844 162.838 73.877 162.773 73.7315 162.55L65.6382 150.29C65.4858 150.065 65.5507 149.758 65.774 149.612C65.9988 149.46 66.3062 149.525 66.4517 149.748L74.545 162.008C74.6973 162.233 74.6393 162.541 74.4091 162.685Z" fill="white"/>
<path opacity="0.2" d="M44.8511 182.196C44.6263 182.349 44.3189 182.284 44.1734 182.061L36.0815 169.794C35.9292 169.569 35.994 169.262 36.2174 169.116C36.4421 168.964 36.7495 169.029 36.895 169.252L44.9884 181.512C45.1392 181.743 45.0758 182.044 44.8511 182.196Z" fill="white"/>
<path opacity="0.2" d="M47.8608 180.206C47.636 180.358 47.3287 180.294 47.1832 180.07L39.0913 167.804C38.939 167.579 39.0038 167.272 39.2271 167.126C39.4519 166.974 39.7593 167.039 39.9048 167.262L47.9981 179.522C48.149 179.753 48.0924 180.055 47.8608 180.206Z" fill="white"/>
<path opacity="0.2" d="M52.229 177.325C52.0042 177.478 51.6968 177.413 51.5513 177.189L43.4594 164.923C43.3071 164.698 43.372 164.391 43.5953 164.245C43.8201 164.093 44.1274 164.158 44.2729 164.381L52.3663 176.641C52.5172 176.872 52.4538 177.173 52.229 177.325Z" fill="white"/>
<path opacity="0.2" d="M57.0449 174.147C56.8201 174.299 56.5127 174.234 56.3672 174.011L48.2739 161.751C48.1216 161.526 48.1864 161.219 48.4098 161.073C48.6345 160.921 48.9419 160.986 49.0874 161.209L57.1807 173.469C57.3331 173.694 57.2765 173.996 57.0449 174.147Z" fill="white"/>
<path opacity="0.2" d="M62.3149 170.671C62.0901 170.824 61.7828 170.759 61.6373 170.535L53.5454 158.269C53.3931 158.044 53.4579 157.737 53.6812 157.591C53.906 157.439 54.2134 157.504 54.3589 157.727L62.4508 169.994C62.6031 170.218 62.5397 170.519 62.3149 170.671Z" fill="white"/>
<path opacity="0.2" d="M68.0341 166.898C67.8094 167.05 67.502 166.986 67.3565 166.762L59.2632 154.503C59.1108 154.278 59.1757 153.97 59.399 153.825C59.6238 153.673 59.9312 153.737 60.0767 153.961L68.17 166.22C68.3223 166.445 68.2589 166.746 68.0341 166.898Z" fill="white"/>
<path opacity="0.2" d="M95.3463 130.104C95.5711 129.952 95.8784 130.017 96.0239 130.24L104.117 142.5C104.27 142.724 104.205 143.032 103.981 143.177C103.757 143.33 103.449 143.265 103.304 143.041L95.2104 130.782C95.0581 130.557 95.1229 130.25 95.3463 130.104Z" fill="white"/>
<path opacity="0.2" d="M92.3287 132.093C92.5535 131.941 92.8608 132.006 93.0063 132.229L101.1 144.489C101.252 144.713 101.187 145.021 100.964 145.166C100.739 145.319 100.432 145.254 100.286 145.03L92.1928 132.771C92.042 132.539 92.1054 132.239 92.3287 132.093Z" fill="white"/>
<path opacity="0.2" d="M87.9615 134.974C88.1863 134.822 88.4937 134.887 88.6392 135.11L96.7325 147.37C96.8848 147.594 96.82 147.902 96.5966 148.047C96.3719 148.2 96.0645 148.135 95.919 147.911L87.8257 135.652C87.6748 135.42 87.7382 135.12 87.9615 134.974Z" fill="white"/>
<path opacity="0.2" d="M83.1471 138.153C83.3718 138.001 83.6792 138.066 83.8247 138.289L91.918 150.549C92.0704 150.774 92.0055 151.081 91.7822 151.226C91.5574 151.379 91.25 151.314 91.1045 151.091L83.0112 138.831C82.8589 138.606 82.9237 138.299 83.1471 138.153Z" fill="white"/>
<path opacity="0.2" d="M77.8746 141.628C78.0994 141.476 78.4067 141.541 78.5522 141.764L86.6456 154.024C86.7979 154.248 86.7331 154.556 86.5097 154.701C86.2849 154.854 85.9776 154.789 85.8321 154.565L77.7387 142.306C77.5864 142.081 77.6513 141.774 77.8746 141.628Z" fill="white"/>
<path opacity="0.2" d="M72.1558 145.401C72.3806 145.249 72.688 145.314 72.8335 145.537L80.9268 157.797C81.0792 158.021 81.0143 158.329 80.791 158.474C80.5662 158.627 80.2588 158.562 80.1133 158.338L72.02 146.079C71.8677 145.854 71.9325 145.547 72.1558 145.401Z" fill="white"/>
<path opacity="0.2" d="M97.4156 129.428L105.454 141.612C105.935 142.341 105.729 143.318 105.006 143.8L45.0138 183.387C44.4334 183.771 43.6877 183.72 43.1677 183.311L75.9977 161.651L67.3709 148.572L72.8995 144.923L81.5264 158.002L83.134 156.943L74.5071 143.864L78.6102 141.155L87.237 154.234L87.7761 153.877L79.1493 140.798L83.5185 137.911L92.1453 150.989L92.5025 150.75L83.8756 137.672L97.0134 129.001C97.1669 129.119 97.301 129.261 97.4156 129.428Z" fill="white"/>
<path opacity="0.2" d="M95.2265 128.98L35.2343 168.567C34.5049 169.048 34.3057 170.026 34.7867 170.755L42.8262 182.932C42.9246 183.074 43.0328 183.204 43.1686 183.304L44.4536 182.455L35.8267 169.376L36.5823 168.872L45.2092 181.951L47.0829 180.713L38.4546 167.641L39.6403 166.857L48.2672 179.935L51.3665 177.892L42.7397 164.814L44.4299 163.701L53.0568 176.779L55.6433 175.071L47.0164 161.992L48.8225 160.804L57.4494 173.882L60.0359 172.173L51.409 159.095L54.2189 157.241L62.8457 170.319L64.139 169.465L55.5121 156.386L59.7889 153.565L68.4157 166.643L69.0624 166.216L60.4355 153.137L96.995 129.018C96.4882 128.647 95.7807 128.619 95.2265 128.98Z" fill="white"/>
<path opacity="0.2" d="M104.666 144.021L50.3115 179.882C48.8491 171.732 49.3128 164.26 50.1779 158.707L94.8924 129.21C95.8052 128.603 97.0361 128.856 97.6425 129.768L105.232 141.272C105.83 142.191 105.572 143.413 104.666 144.021Z" fill="white"/>
<path d="M171.187 129.237L170.008 131.384H134.046C133.48 130.991 131.544 130.033 127.749 131.384H116.381C116.381 131.384 116.266 134.001 116.295 137.873C116.295 137.873 116.314 153.276 117.224 153.688C117.33 154.474 117.435 155.26 117.56 156.027V156.037C118.077 162.554 118.883 172.091 120.052 178.906C120.052 178.906 120.867 187.782 127.183 187.724C127.183 187.724 134.717 187.695 138.397 185.98C141.647 184.465 140.841 177.449 140.669 175.963L139.26 170.337C139.883 170.385 140.525 170.423 141.196 170.452H149.362C149.995 170.423 150.599 170.385 151.193 170.347L149.784 175.963C149.612 177.459 148.806 184.475 152.056 185.98C155.746 187.695 163.27 187.724 163.27 187.724C169.586 187.782 170.401 178.906 170.401 178.906C171.57 172.091 172.385 163.829 172.912 157.311C172.931 157.033 172.931 156.765 172.922 156.506C173.545 152.739 173.89 148.656 174.082 144.899C174.379 145.033 174.666 145.158 174.954 145.292V145.302C174.954 145.302 172.826 126.256 171.187 129.237Z" fill="#E3E4F3"/>
<path d="M129.215 167.769C129.215 167.769 134.103 176.932 140.803 176.788C140.851 175.149 139.26 169.839 139.26 169.839C139.26 169.839 132.8 169.532 129.215 167.769Z" fill="#B5BBDF"/>
<path d="M151.18 169.849C151.18 169.849 149.656 174.737 149.656 176.635C157.775 175.658 161.829 167.884 161.829 167.884C158.225 169.629 151.18 169.849 151.18 169.849Z" fill="#B5BBDF"/>
<path d="M116.298 145.8C116.298 145.8 125.749 155.317 138.659 151.646C138.659 151.646 149.567 155.902 160.225 150.352C160.225 150.352 159.66 156.458 162.027 164.356C162.027 164.356 164.069 167.279 164.759 159.046L165.689 141.438L124.33 143.787L116.298 145.8Z" fill="#B5BBDF"/>
<path d="M169.816 129.476C169.423 130.195 169.03 130.914 168.637 131.623C169.394 131.355 170.151 131.077 170.909 130.809C165.944 130.809 160.979 130.809 156.014 130.809C149.41 130.809 142.815 130.809 136.211 130.809C135.876 130.809 135.541 130.79 135.215 130.809C135.138 130.818 135.061 130.818 134.985 130.809C135.042 130.809 135.406 130.972 135.042 130.722C132.924 129.313 129.387 130.329 127.259 131.058C127.719 130.972 128.179 130.895 128.639 130.809C124.853 130.809 121.067 130.809 117.281 130.809C116.754 130.809 115.029 131 114.991 131.758C114.77 136.924 114.876 142.148 115.067 147.323C115.154 149.509 115.096 151.876 115.748 153.975C116.323 155.816 116.294 158.058 116.457 160.014C116.668 162.525 116.888 165.027 117.147 167.528C117.559 171.602 118.096 175.647 118.71 179.691C119.055 181.982 119.821 184.33 121.355 186.104C123.214 188.26 125.735 188.366 128.371 188.232C131.975 188.059 136.135 187.771 139.394 186.065C142.595 184.388 142.432 179.797 142.173 176.701C141.982 174.42 141.205 172.167 140.649 169.953C139.882 170.27 139.125 170.586 138.358 170.902C142.384 171.19 146.554 171.18 150.579 170.902C150.32 170.797 150.062 170.682 149.812 170.576C149.007 173.797 148.106 176.816 148.183 180.161C148.231 182.26 148.518 185.174 150.55 186.343C152.841 187.676 155.995 187.877 158.573 188.097C162.8 188.462 167.324 188.423 169.864 184.407C170.813 182.912 171.369 181.158 171.666 179.423C172.068 177.046 172.413 174.65 172.73 172.254C173.314 167.787 173.765 163.301 174.148 158.816C174.551 154.042 175.231 149.307 175.471 144.515C174.57 144.793 173.669 145.081 172.778 145.359C172.826 145.378 173.544 145.809 173.583 145.521C174.503 145.32 175.423 145.109 176.343 144.908C176.075 142.512 175.759 140.125 175.394 137.739C175.116 135.927 174.819 134.115 174.436 132.333C174.196 131.221 173.995 129.821 173.353 128.853C172.586 127.751 170.41 128.48 169.816 129.476C169.557 129.917 170.803 129.783 170.928 129.754C171.426 129.668 172.27 129.476 172.557 128.988C172.864 128.47 170.353 129.16 170.468 129.496C170.516 129.63 170.659 129.793 170.736 129.927C171.024 130.492 171.177 131.144 171.34 131.748C171.819 133.598 172.145 135.496 172.442 137.384C172.883 140.125 173.257 142.886 173.564 145.646C173.631 146.221 176.228 145.598 176.324 145.033C176.372 144.937 176.353 144.86 176.257 144.803C175.969 144.668 175.672 144.544 175.385 144.41C174.829 144.16 172.73 144.438 172.691 145.253C172.586 147.266 172.452 149.269 172.26 151.282C172.068 153.209 171.656 155.145 171.541 157.062C171.33 160.618 170.976 164.174 170.583 167.72C170.171 171.477 169.643 175.206 169.068 178.934C168.915 179.96 168.742 180.966 168.436 181.953C167.899 183.698 167.036 185.586 165.503 186.669C164.439 187.417 162.905 187.11 161.688 187.033C159.138 186.88 156.464 186.631 154.039 185.759C151.749 184.925 151.193 182.672 151.01 180.439C150.723 176.768 151.672 173.615 152.554 170.078C152.649 169.694 151.998 169.733 151.787 169.752C147.953 170.02 143.994 170.011 140.16 169.742C139.777 169.714 137.707 170.03 137.87 170.691C138.339 172.57 138.953 174.458 139.279 176.365C139.72 178.905 139.806 182.251 138.598 184.58C137.841 186.046 136.317 186.267 134.812 186.535C133.077 186.842 131.323 186.995 129.569 187.081C128.62 187.129 128.016 187.235 127.029 187.043C125.563 186.755 124.355 185.759 123.521 184.551C122.342 182.826 121.758 180.755 121.46 178.714C120.866 174.746 120.329 170.778 119.927 166.781C119.687 164.394 119.476 162.017 119.275 159.63C119.103 157.56 119.17 155.173 118.537 153.208C118.048 151.694 117.981 149.518 117.904 147.755C117.646 142.196 117.54 136.569 117.78 131.01C117.013 131.326 116.256 131.643 115.489 131.959C119.112 131.959 122.735 131.959 126.358 131.959C127.461 131.959 128.4 131.566 129.473 131.365C130.671 131.144 131.582 131.374 132.665 131.815C133.288 132.074 134.045 131.959 134.716 131.959C143.371 131.959 152.026 131.959 160.691 131.959C163.5 131.959 166.298 131.959 169.107 131.959C169.758 131.959 171.014 131.796 171.378 131.144C171.771 130.425 172.164 129.706 172.557 128.997C172.806 128.547 171.58 128.69 171.445 128.719C170.957 128.796 170.084 128.988 169.816 129.476Z" fill="#B5BBDF"/>
<path d="M113.414 147.148C114.162 156.455 118.561 165.416 124.217 164.075C124.217 164.075 131.213 163.576 130.581 144.033C130.418 138.933 125.731 135.176 120.67 135.838C120.67 135.838 112.628 137.419 113.414 147.148Z" fill="#E3E4F3"/>
<path d="M112.014 147.522C112.378 151.758 113.384 156.043 115.445 159.79C116.921 162.465 119.269 165.072 122.528 165.235C123.611 165.292 124.426 165.196 125.538 164.717C126.592 164.257 127.512 163.49 128.231 162.599C131.653 158.429 131.998 152.036 132.036 146.918C132.056 144.867 132.151 142.71 131.366 140.774C130.695 139.135 129.583 137.707 128.155 136.662C125.969 135.052 122.787 134.218 120.122 134.918C118.225 135.416 116.461 136.49 115.071 137.86C112.57 140.333 111.745 143.822 111.985 147.244C112.09 148.72 114.908 148.289 114.822 147.033C114.64 144.378 114.985 141.579 116.729 139.451C117.285 138.78 117.937 138.205 118.675 137.736C118.857 137.621 119.154 137.458 119.452 137.324C119.624 137.237 120.448 136.921 120.103 137.036C121.666 136.499 123.41 136.835 124.944 137.621C126.353 138.34 127.541 139.518 128.279 140.908C129.151 142.528 129.19 144.292 129.199 146.084C129.228 150.924 129.123 156.857 126.372 161.084C126.113 161.477 125.701 161.985 125.317 162.369C125.528 162.167 125.078 162.56 124.982 162.637C124.905 162.695 124.829 162.752 124.742 162.81C124.493 162.992 124.992 162.685 124.733 162.819C124.599 162.886 124.464 162.944 124.34 163.02C124.062 163.174 124.714 162.953 124.321 163.03C123.841 163.116 124.484 163.011 124.34 163.04C121.512 163.596 119.547 161.19 118.253 158.985C116.106 155.333 115.177 150.953 114.812 146.774C114.707 145.48 111.899 146.161 112.014 147.522Z" fill="#B5BBDF"/>
<path d="M152.032 147.928C152.779 157.235 157.179 166.197 162.834 164.855C162.834 164.855 169.831 164.356 169.198 144.813C169.035 139.714 164.339 135.956 159.287 136.618C159.287 136.618 151.246 138.199 152.032 147.928Z" fill="#E3E4F3"/>
<path d="M150.629 148.302C150.993 152.529 151.971 156.909 154.108 160.618C155.584 163.177 157.798 165.574 160.952 165.555C162.984 165.535 165.37 164.701 166.904 162.9C170.326 158.855 170.594 152.442 170.632 147.439C170.651 145.417 170.738 143.327 169.923 141.429C169.242 139.848 168.073 138.477 166.635 137.538C164.402 136.081 161.44 135.583 158.862 136.282C156.926 136.81 155.038 137.797 153.6 139.196C151.127 141.592 150.389 144.957 150.629 148.302C150.667 148.791 153.485 148.302 153.427 147.554C153.236 144.803 153.667 141.957 155.421 139.743C155.987 139.033 156.667 138.41 157.434 137.921C157.702 137.749 157.971 137.596 158.249 137.461C158.67 137.251 158.613 137.298 158.891 137.193C159.322 137.02 158.699 137.174 159.15 137.107C159.523 137.059 158.987 137.135 159.015 137.135C160.789 137.222 162.313 137.413 163.865 138.391C165.217 139.244 166.309 140.442 167 141.88C167.766 143.49 167.824 145.187 167.843 146.941C167.891 151.934 167.738 157.839 164.996 162.238C164.46 163.101 163.693 163.944 163.012 164.356C162.801 164.481 163.156 164.318 162.821 164.452C163.108 164.337 162.61 164.471 163.079 164.366C162.869 164.414 163.424 164.309 163.463 164.309C160.357 164.836 158.114 162.037 156.763 159.583C154.741 155.922 153.801 151.685 153.447 147.554C153.389 147.056 150.562 147.564 150.629 148.302Z" fill="#B5BBDF"/>
<path d="M179.946 122.88C171.772 126.429 149.239 128.041 149.239 128.041C129.544 128.382 115.045 124.072 115.045 124.072C109.929 121.216 109 124.063 109 124.063V127.243L109.009 127.252C109 127.988 109 128.724 109.026 129.46C109.053 130.24 109.088 131.011 109.149 131.782C109.263 133.218 109.193 135.382 109.937 136.661C112.802 141.576 118.672 143.39 123.745 144.441C136.536 147.087 149.808 147.201 162.67 144.827C162.634 145.887 162.582 146.877 162.503 147.735C162.293 150.057 162.153 152.527 162.521 154.832C162.652 155.673 162.845 157.399 163.782 157.758L163.87 160.123C163.879 160.377 164.089 160.57 164.334 160.57C164.343 160.57 164.343 160.57 164.352 160.57C164.606 160.561 164.807 160.342 164.798 160.088L164.72 157.968C165.088 158.029 165.534 158.082 166.025 158.126L166.104 160.307C166.113 160.561 166.323 160.754 166.568 160.754C166.577 160.754 166.577 160.754 166.586 160.754C166.84 160.745 167.041 160.526 167.032 160.272L166.954 158.213C167.462 158.257 168.005 158.292 168.557 158.327L168.469 160.474C168.461 160.728 168.653 160.947 168.916 160.955C168.925 160.955 168.934 160.955 168.934 160.955C169.179 160.955 169.389 160.763 169.398 160.509L169.486 158.371C169.906 158.389 170.318 158.406 170.738 158.424L170.642 160.658C170.633 160.912 170.826 161.131 171.089 161.139C171.098 161.139 171.106 161.139 171.106 161.139C171.352 161.139 171.562 160.947 171.571 160.693L171.667 158.45C172.166 158.459 172.657 158.467 173.104 158.467L172.999 160.649C172.99 160.903 173.183 161.122 173.437 161.131C173.445 161.131 173.454 161.131 173.463 161.131C173.708 161.131 173.919 160.938 173.927 160.693L174.032 158.459C174.549 158.45 175.005 158.424 175.364 158.397L175.312 160.658L175.776 160.666L176.24 160.605L176.302 158.152C177.318 157.399 177.677 154.253 177.975 153.141C178.869 149.741 179.052 145.133 179.044 140.726C179.403 140.507 179.745 140.271 180.069 139.991C181.541 138.755 182.338 136.968 182.618 135.041C182.82 133.648 183.284 131.037 183.424 129.022L183.468 129.013C184.519 121.952 179.946 122.88 179.946 122.88Z" fill="#0055B8"/>
<path d="M123.935 141.077C123.908 141.077 123.891 141.077 123.864 141.068C115.883 139.842 112.615 135.61 112.475 135.435C112.318 135.234 112.361 134.944 112.563 134.787C112.764 134.629 113.062 134.673 113.211 134.874C113.246 134.918 116.418 138.983 123.996 140.157C124.25 140.192 124.425 140.429 124.381 140.683C124.355 140.911 124.154 141.077 123.935 141.077Z" fill="white"/>
<path d="M164.956 154.893C164.947 154.893 164.947 154.893 164.938 154.893C164.684 154.884 164.483 154.674 164.491 154.411L164.702 148.051C164.711 147.797 164.912 147.578 165.184 147.604C165.438 147.613 165.639 147.823 165.63 148.086L165.42 154.446C165.411 154.7 165.21 154.893 164.956 154.893Z" fill="white"/>
<path d="M171.269 155.726C171.26 155.726 171.252 155.726 171.243 155.726C170.989 155.708 170.787 155.489 170.805 155.235C170.998 151.661 171.313 148.051 171.76 144.503C171.795 144.249 172.04 144.065 172.277 144.1C172.531 144.135 172.715 144.363 172.68 144.617C172.242 148.148 171.917 151.731 171.733 155.279C171.716 155.533 171.514 155.726 171.269 155.726Z" fill="white"/>
<path d="M174.432 155.725C174.415 155.725 174.397 155.725 174.388 155.725C174.134 155.699 173.95 155.471 173.968 155.217L175.081 143.846C175.107 143.591 175.343 143.399 175.589 143.425C175.843 143.451 176.027 143.679 176.009 143.933L174.897 155.305C174.87 155.55 174.669 155.725 174.432 155.725Z" fill="white"/>
<path d="M131.827 139.272C131.81 139.272 131.801 139.272 131.784 139.272C126.632 138.817 121.472 137.354 116.855 135.032C116.627 134.918 116.531 134.638 116.645 134.41C116.759 134.182 117.039 134.095 117.267 134.2C121.779 136.469 126.825 137.906 131.862 138.344C132.116 138.37 132.309 138.589 132.283 138.843C132.265 139.088 132.064 139.272 131.827 139.272Z" fill="white"/>
<path d="M146.765 136.767C138.074 136.767 129.392 135.47 121.06 132.912C120.815 132.833 120.675 132.579 120.753 132.334C120.832 132.088 121.086 131.948 121.332 132.027C134.859 136.197 149.34 136.968 163.235 134.261C163.489 134.217 163.735 134.375 163.778 134.629C163.831 134.883 163.665 135.129 163.41 135.172C157.926 136.241 152.345 136.767 146.765 136.767Z" fill="white"/>
<path d="M151.234 133.219C151.015 133.219 150.796 133.219 150.577 133.219C150.323 133.219 150.112 133.008 150.112 132.754C150.112 132.5 150.323 132.29 150.577 132.29C157.463 132.343 164.349 131.537 171.042 129.889C171.296 129.828 171.542 129.986 171.603 130.231C171.664 130.485 171.515 130.731 171.261 130.792C164.717 132.404 157.98 133.219 151.234 133.219Z" fill="white"/>
<path d="M173.179 134.884C172.986 134.884 172.802 134.761 172.741 134.568C172.662 134.323 172.793 134.06 173.03 133.981C174.773 133.394 176.394 132.536 177.848 131.423C178.05 131.265 178.339 131.3 178.497 131.511C178.654 131.712 178.611 132.01 178.409 132.159C176.876 133.342 175.159 134.253 173.319 134.866C173.284 134.875 173.231 134.884 173.179 134.884Z" fill="white"/>
<path d="M228.594 95.7958C228.594 95.6712 228.584 95.5466 228.584 95.4315C228.565 95.029 228.527 94.6168 228.488 94.2143C228.488 94.1855 228.488 94.1664 228.479 94.1376C228.431 93.7063 228.373 93.275 228.306 92.8437C228.306 92.8149 228.297 92.7861 228.297 92.7574C228.21 92.2206 228.105 91.6839 227.98 91.1567C227.971 91.128 227.971 91.1088 227.961 91.08C227.846 90.5912 227.712 90.112 227.558 89.6327C227.539 89.5656 227.52 89.4985 227.501 89.4314C227.357 89.0001 227.204 88.5688 227.031 88.1471C226.993 88.0512 226.964 87.9554 226.916 87.8595C226.705 87.3515 226.475 86.8627 226.226 86.3739C225.996 85.9234 225.747 85.5017 225.488 85.0799C225.421 84.9745 225.354 84.8595 225.277 84.754C225.066 84.4282 224.856 84.1119 224.626 83.7956C224.568 83.7093 224.51 83.6326 224.443 83.5463C223.849 82.7412 223.197 81.9936 222.507 81.2843C222.392 81.1597 222.268 81.0447 222.143 80.9201C222.076 80.8626 222.018 80.7955 221.961 80.738C221.884 80.6709 221.817 80.6038 221.74 80.5271C221.376 80.1821 220.993 79.8466 220.6 79.5303C220.437 79.3961 220.284 79.2619 220.111 79.1277C220.121 79.1373 220.121 79.1469 220.13 79.1565C218.271 77.7188 216.181 76.559 213.919 75.7826C213.89 59.3446 200.903 45.945 184.628 45.2357C184.609 45.1591 184.59 45.092 184.561 45.0153C184.561 45.0153 184.523 44.9194 184.484 44.7469C180.746 32.0374 169.005 22.7593 155.087 22.7593C145.196 22.7593 136.397 27.4558 130.79 34.7307C127.474 33.5039 123.889 32.8234 120.141 32.8234C104.93 32.8234 92.3068 43.913 89.9105 58.4532C89.1917 58.3957 88.4632 58.3382 87.7252 58.3382C78.7442 58.3382 70.76 62.5268 65.5746 69.0445C65.5842 69.0349 65.5938 69.0157 65.6034 68.9966C65.5363 69.0828 65.4692 69.1787 65.4021 69.2649C64.0602 70.9902 62.91 72.8688 61.9995 74.8721C61.9516 74.9679 61.9132 75.0638 61.8749 75.1596C61.779 75.3609 61.7023 75.5718 61.6161 75.7826C61.2902 76.559 60.9931 77.345 60.7343 78.1405C60.7055 78.2459 60.6672 78.3514 60.6384 78.4472C60.418 79.1469 60.2167 79.8562 60.0538 80.575C60.0442 80.6038 60.0442 80.6326 60.0346 80.6613C59.7758 81.8019 59.5937 82.9617 59.4787 84.131C59.4787 84.1694 59.4691 84.2173 59.4691 84.2556C59.3636 85.425 59.3349 86.6039 59.3924 87.7924C59.3924 87.8308 59.3924 87.8595 59.3924 87.8979C59.4499 89.1056 59.5937 90.3132 59.8141 91.5209C59.8141 91.5401 59.8237 91.5497 59.8237 91.5689C59.9387 92.2015 60.0921 92.8341 60.255 93.4571C60.3605 93.8405 60.4851 94.2239 60.6001 94.5977C60.6672 94.8085 60.7247 95.029 60.7918 95.2399C60.8301 95.3645 60.8781 95.4891 60.9164 95.6137C60.9356 95.6712 60.9547 95.7287 60.9739 95.7862C60.9835 95.8149 60.9931 95.8341 61.0027 95.8629C61.0122 95.882 61.0218 95.9012 61.0218 95.9204C61.7215 97.914 62.6417 99.8022 63.7439 101.566C63.974 101.94 64.2136 102.304 64.4532 102.659C64.4532 102.668 64.4628 102.668 64.4628 102.678C64.6832 103.004 64.9037 103.32 65.1337 103.627C65.1625 103.665 65.1816 103.694 65.2104 103.732C65.4309 104.039 65.6609 104.326 65.8909 104.614C65.9101 104.643 65.9293 104.662 65.9484 104.691C66.581 105.476 67.2424 106.195 67.9133 106.857C72.4949 111.409 77.6419 113.298 80.7954 114.064H80.8049C80.9871 114.112 81.1596 114.151 81.3225 114.189C81.9647 114.333 82.5015 114.419 82.9136 114.486C82.9328 114.486 82.9615 114.496 82.9807 114.496C83.0574 114.505 83.1245 114.515 83.1916 114.525C83.2203 114.525 83.2491 114.534 83.2778 114.534C83.3353 114.544 83.3833 114.544 83.4312 114.553C83.4599 114.553 83.4887 114.563 83.5175 114.563C83.5558 114.563 83.5845 114.572 83.6133 114.572C83.6421 114.572 83.6612 114.572 83.6804 114.582C83.69 114.582 83.7091 114.582 83.7187 114.582C83.7379 114.582 83.7571 114.582 83.7571 114.582C84.543 116.777 85.6836 118.79 87.0543 120.621C87.2364 120.879 87.4185 121.129 87.6006 121.359C87.8498 121.665 88.0894 121.982 88.3482 122.279C88.3482 122.279 88.3482 122.279 88.3482 122.288C88.8275 122.844 89.2875 123.323 89.6997 123.726C89.738 123.755 89.7668 123.784 89.7955 123.822C89.9585 123.985 90.1214 124.129 90.2748 124.272C90.3131 124.311 90.361 124.349 90.3994 124.378C90.5336 124.493 90.6677 124.608 90.7828 124.704C90.8211 124.732 90.8594 124.771 90.8978 124.8C91.0128 124.886 91.1182 124.972 91.2141 125.049C91.2428 125.077 91.2812 125.097 91.3099 125.125C91.3962 125.192 91.4825 125.25 91.5495 125.298C91.5687 125.308 91.5975 125.327 91.6166 125.346C91.6837 125.394 91.7412 125.432 91.7796 125.461C91.7892 125.461 91.7988 125.47 91.8083 125.48C91.8467 125.509 91.8754 125.518 91.8754 125.518C91.9521 125.576 92.0288 125.624 92.1055 125.681C92.1342 125.7 92.163 125.72 92.1917 125.739C92.2013 125.748 92.2013 125.748 92.2109 125.748C92.5272 125.988 92.8531 126.218 93.1694 126.439C93.2461 126.486 93.3227 126.534 93.3994 126.582C93.6199 126.726 93.8499 126.87 94.0799 127.014C104.202 133.052 113.326 126.141 113.326 126.141C134.461 135.304 168.295 126.477 168.295 126.477C182.241 133.531 190.992 129.381 190.992 129.381C191.155 129.295 191.309 129.209 191.462 129.122C193.561 128.106 195.468 126.764 197.165 125.192C197.395 124.991 197.615 124.79 197.826 124.589C198.114 124.301 198.421 124.023 198.689 123.716C198.881 123.515 199.063 123.314 199.235 123.113C199.245 123.103 199.254 123.084 199.274 123.074C199.513 122.796 199.743 122.528 199.954 122.26C201.44 120.4 202.178 118.857 202.475 118.109C202.485 118.1 202.485 118.09 202.485 118.071C202.532 117.956 202.571 117.86 202.6 117.783C202.609 117.764 202.619 117.735 202.619 117.716C202.628 117.688 202.638 117.659 202.647 117.649C202.647 117.64 202.657 117.611 202.657 117.611C203.155 117.707 203.635 117.774 204.114 117.831C204.124 117.831 204.133 117.831 204.152 117.841C204.315 117.86 204.469 117.879 204.632 117.898C204.651 117.898 204.67 117.898 204.689 117.898C204.919 117.918 205.149 117.937 205.379 117.956C205.446 117.966 205.513 117.956 205.58 117.966C205.973 117.994 206.357 118.013 206.74 118.013C206.836 118.013 206.922 118.013 207.018 118.013C207.411 118.013 207.804 118.004 208.178 117.985C208.245 117.985 208.312 117.975 208.379 117.975C208.772 117.956 209.156 117.918 209.529 117.879C209.577 117.87 209.616 117.87 209.664 117.86C210.057 117.812 210.43 117.755 210.795 117.697C210.814 117.697 210.833 117.688 210.862 117.688C211.245 117.62 211.619 117.544 211.974 117.458C211.974 117.458 211.974 117.458 211.983 117.458C216.057 116.499 218.395 114.659 218.395 114.659C227.808 109.262 228.546 98.1249 228.546 98.1249C228.565 97.6648 228.584 97.1952 228.574 96.7351C228.622 96.438 228.613 96.1121 228.594 95.7958Z" fill="#CBCFE9"/>
<path d="M181.043 98.7479C180.679 98.7479 180.343 98.815 180.008 98.9012C179.366 96.1887 176.557 94.1567 173.184 94.1567C170.059 94.1567 167.414 95.9108 166.532 98.3166C165.592 98.4316 164.682 98.652 163.838 99.0163C158.605 101.269 159.525 107.758 164.826 109.454C166.005 109.828 167.442 109.905 168.918 109.723C170.164 110.873 171.823 111.582 173.653 111.582C176.797 111.582 179.452 109.502 180.324 106.636C180.564 106.684 180.804 106.713 181.062 106.713C183.257 106.713 185.04 104.93 185.04 102.735C185.03 100.531 183.248 98.7479 181.043 98.7479Z" fill="#9FA9D6"/>
<path d="M120.14 99.2843C119.296 98.9201 118.376 98.6996 117.446 98.5846C116.564 96.1788 113.919 94.4248 110.794 94.4248C107.42 94.4248 104.612 96.4664 103.97 99.1693C103.634 99.083 103.299 99.0159 102.935 99.0159C100.74 99.0159 98.957 100.799 98.957 102.994C98.957 105.189 100.74 106.971 102.935 106.971C103.184 106.971 103.433 106.943 103.673 106.895C104.535 109.761 107.19 111.84 110.344 111.84C112.175 111.84 113.833 111.131 115.079 109.981C116.555 110.163 117.993 110.086 119.171 109.713C124.453 108.026 125.373 101.537 120.14 99.2843Z" fill="#9FA9D6"/>
<path d="M227.244 86.3643C225.701 83.3738 223.592 81.0735 221.148 79.1182C225.356 84.8307 224.234 94.9236 220.678 101.643C219.02 104.777 216.116 107.125 212.895 109.109C209.78 110.509 205.266 111.774 200.78 110.326C200.78 110.326 197.445 118.004 186.183 120.927H186.556C170.703 125.432 154.102 125.662 137.348 125.001C135.67 124.934 133.993 124.828 132.325 124.665C122.06 123.659 111.91 121.445 102.152 118.081C94.7911 114.333 92.6632 107.231 92.6632 107.231C86.6056 108.783 80.7397 106.071 77.5 104.087C73.9249 100.607 70.9344 96.553 68.912 91.9235C67.3017 88.2429 66.3049 84.3036 65.9407 80.3067C65.7586 78.2843 65.7298 76.2427 65.8736 74.2107C65.9407 73.1947 66.0557 72.1883 66.2091 71.1819C66.2953 70.6068 66.2666 69.4758 66.6404 68.9966C60.8415 76.4057 58.5316 86.3739 62.0397 95.8629C68.5861 113.566 84.8228 114.592 84.8228 114.592C88.0433 122.557 92.9604 125.509 92.9604 125.509C103.925 134.087 114.392 126.141 114.392 126.141C135.527 135.305 169.371 126.477 169.371 126.477C183.317 133.531 192.068 129.381 192.068 129.381C201.739 124.387 203.742 117.62 203.742 117.62C213.375 119.48 219.442 114.678 219.442 114.678C228.854 109.282 229.583 98.1441 229.583 98.1441C229.794 94.0897 229.113 89.9874 227.244 86.3643Z" fill="#B5BBDF"/>
<path d="M230.982 95.4216C230.752 88.6643 227.608 82.8463 222.432 78.5811C221.809 78.0731 219.202 78.6673 219.844 79.6546C219.854 79.6641 219.854 79.6737 219.864 79.6833C220.726 79.3287 221.589 78.974 222.452 78.6098C220.688 77.2679 218.828 76.3574 216.854 75.4085C216.269 75.1209 216.346 75.0251 216.327 74.3829C216.308 73.9324 216.288 73.4915 216.25 73.041C216.173 72.1017 216.058 71.172 215.905 70.2422C215.311 66.8013 214.122 63.4658 212.407 60.4178C209.081 54.5327 203.905 49.8074 197.703 47.0949C194.071 45.5038 190.17 44.6507 186.211 44.459C186.489 44.5932 186.777 44.7178 187.055 44.852C184.668 36.4365 178.831 29.2958 171.01 25.3564C162.441 21.0337 152.06 20.9378 143.309 24.7718C138.297 26.9667 133.916 30.3885 130.552 34.7112C131.348 34.5004 132.153 34.2799 132.948 34.069C118.552 28.8453 101.654 34.4141 93.6696 47.6028C91.6184 50.9863 90.2382 54.734 89.5673 58.635C90.2095 58.3187 90.8612 58.0024 91.5034 57.6957C81.4968 56.9385 71.6244 61.2325 65.3368 69.0441C66.1994 69.0537 67.0525 69.0633 67.9151 69.0729C67.9247 69.0537 67.9343 69.0441 67.9439 69.025C68.6148 67.894 65.8448 68.354 65.3655 68.9962C60.0364 76.204 57.4101 85.3575 60.0172 94.2139C62.423 102.399 67.9247 109.377 75.7459 112.981C78.4009 114.198 81.3435 115.128 84.2669 115.349C83.9889 115.214 83.7014 115.09 83.4234 114.956C85.4075 120.294 89.1647 124.742 94.0338 127.655C99.3822 130.866 105.929 130.905 111.593 128.499C112.954 127.924 114.306 127.224 115.494 126.333C114.756 126.486 114.018 126.63 113.28 126.783C122.098 130.56 132.019 131.298 141.508 131.001C149.405 130.751 157.275 129.726 165.019 128.154C166.534 127.847 168.048 127.521 169.543 127.138C169.112 127.138 168.681 127.128 168.259 127.128C174.269 130.128 181.083 132.017 187.831 131.125C192.154 130.56 195.767 128.576 199.045 125.662C201.547 123.438 204.087 120.668 205.132 117.419C204.384 117.726 203.636 118.032 202.889 118.329C209.109 119.46 215.272 118.262 220.582 114.86C225.634 111.62 229.017 106.828 230.455 100.99C230.905 99.131 231.049 97.3673 230.982 95.4216C230.953 94.5877 228.164 95.1245 228.202 96.1692C228.327 99.6485 227.464 103.061 225.95 106.185C224.685 108.792 222.883 111.15 220.592 112.943C219.95 113.451 219.269 113.853 218.579 114.294C218.483 114.361 218.388 114.438 218.292 114.505C218.311 114.495 218.368 114.457 218.148 114.601C217.065 115.31 215.886 115.866 214.659 116.297C211.41 117.428 207.892 117.505 204.576 116.901C203.895 116.777 202.582 117.045 202.333 117.812C201.231 121.224 198.307 124.167 195.556 126.323C194.339 127.282 192.585 128.384 191.406 128.892C191.262 128.949 191.119 129.007 190.975 129.055C190.86 129.103 191.262 128.978 190.85 129.093C190.659 129.151 190.467 129.208 190.275 129.256C188.09 129.841 185.521 129.946 183.125 129.726C181.16 129.544 179.214 129.141 177.326 128.595C176.185 128.259 175.054 127.857 173.952 127.416C172.754 126.937 171.546 126.122 170.32 125.786C169.428 125.547 168.086 126.084 167.214 126.285C165.201 126.745 163.246 127.128 161.214 127.483C154.572 128.652 147.843 129.4 141.105 129.524C132.469 129.687 123.498 128.921 115.485 125.48C114.785 125.183 113.836 125.499 113.271 125.93C113.117 126.045 113.529 125.767 113.165 126.007C112.916 126.16 112.667 126.323 112.418 126.477C111.555 126.985 110.635 127.406 109.695 127.761C106.667 128.882 103.35 129.045 100.245 128.135C93.7367 126.246 88.5034 120.428 86.1934 114.227C86.0688 113.882 85.6567 113.863 85.3499 113.834C85.1391 113.815 85.5512 113.853 85.3308 113.834C85.1582 113.815 84.9857 113.796 84.8132 113.767C84.1039 113.662 83.4042 113.518 82.7141 113.355C81.3914 113.029 80.0975 112.598 78.8418 112.071C74.9312 110.431 71.4519 107.892 68.7011 104.661C63.439 98.4696 60.8127 90.0541 62.1642 82.0028C62.5572 79.6354 63.2856 77.335 64.2345 75.1401C65.1739 72.9643 66.5061 70.9515 67.9343 69.0154C67.0716 69.0058 66.2186 68.9962 65.356 68.9866C65.3464 69.0058 65.3368 69.0154 65.3272 69.0346C64.6563 70.1847 67.4359 69.6576 67.9055 69.0633C73.3881 62.2485 81.6598 58.5487 90.4012 59.2101C90.9092 59.2484 92.2223 58.9321 92.3373 58.2708C94.4651 45.7626 104.462 35.3534 117.239 33.7911C121.792 33.2352 126.421 33.8294 130.725 35.3822C131.482 35.6601 132.613 35.3918 133.121 34.74C138.718 27.5514 147.306 23.2669 156.46 23.5257C164.732 23.7558 172.601 27.6472 178.007 33.8869C180.949 37.2896 183.048 41.2864 184.275 45.5996C184.371 45.9351 184.841 45.9734 185.119 45.9926C197.167 46.5773 207.902 54.7436 211.87 66.1112C213.001 69.3413 213.547 72.7247 213.576 76.1465C213.624 76.2807 213.72 76.3765 213.854 76.4341C216.03 77.2104 218.043 78.2935 219.883 79.6929C220.506 80.1626 223.122 79.6258 222.471 78.6194C222.461 78.6098 222.461 78.6002 222.452 78.5906C221.589 78.9453 220.726 79.2999 219.864 79.6641C222.384 81.7345 224.608 84.1594 226.046 87.1116C227.416 89.9199 228.107 93.0542 228.212 96.1788C228.241 97.0031 231.02 96.4664 230.982 95.4216Z" fill="#B5BBDF"/>
<path d="M159.711 86.9196C160.727 84.2263 164.829 83.402 166.804 85.5011C168.778 87.5906 167.724 91.6354 164.973 92.498C162.222 93.3606 159.05 90.629 159.491 87.7823" fill="#1E56A4"/>
<path d="M118.936 92.5271C121.841 92.7954 124.467 89.5366 123.576 86.757C122.684 83.9774 118.659 82.8368 116.454 84.7442C114.24 86.6515 114.767 90.8018 117.384 92.0862C117.844 92.3162 118.428 92.4791 118.936 92.5271Z" fill="#1E56A4"/>
<g clip-path="url(#clip0_3_8768)">
<path d="M160.165 76.9002C163.038 79.8958 166.798 81.9591 170.879 82.7692C171.398 82.8762 172.056 82.7233 172.438 82.3565C172.774 82.0356 172.698 81.6229 172.208 81.5312C168.387 80.767 164.903 78.8412 162.213 76.029C161.663 75.4329 159.553 76.2583 160.165 76.9002Z" fill="#1D56A3"/>
<path d="M120.48 76.9002C117.606 79.8958 113.847 81.9591 109.766 82.7692C109.246 82.8762 108.589 82.7233 108.207 82.3565C107.871 82.0356 107.947 81.6229 108.436 81.5312C112.257 80.767 115.742 78.8412 118.432 76.029C118.982 75.4329 121.091 76.2583 120.48 76.9002Z" fill="#1D56A3"/>
</g>
<g clip-path="url(#clip1_3_8768)">
<path d="M151.26 92.932C148.55 97.492 151.14 102.652 153.45 106.732C154.13 107.922 156.87 106.802 156.09 105.422C154.07 101.842 151.66 97.312 154.04 93.312C154.42 92.672 153.7 92.102 153.14 92.012C152.38 91.912 151.65 92.282 151.26 92.932Z" fill="#1E56A4"/>
<path d="M133.3 101.252C139.12 101.042 144.95 101.372 150.72 102.182C151.35 102.272 152.32 101.942 152.62 101.342C152.94 100.692 152.33 100.372 151.78 100.302C145.77 99.452 139.7 99.162 133.63 99.372C133.05 99.392 132.1 99.802 132.01 100.462C131.91 101.172 132.81 101.262 133.3 101.252Z" fill="#1E56A4"/>
</g>
<path d="M186.117 160.001C186.187 160.147 186.263 160.294 186.34 160.441C186.55 160.866 186.766 161.292 186.989 161.704C187.848 163.296 188.769 164.825 189.761 166.27C189.949 166.549 190.145 166.821 190.333 167.093C190.417 167.205 190.494 167.31 190.563 167.421C190.961 167.959 191.359 168.489 191.771 168.999C192.546 169.99 193.349 170.926 194.186 171.826C194.424 172.084 194.661 172.336 194.905 172.58C194.996 172.678 195.094 172.776 195.192 172.866C195.352 173.034 195.513 173.194 195.68 173.355C196.825 174.479 198.012 175.526 199.227 176.475C199.506 176.692 199.778 176.908 200.057 177.111C200.071 177.125 200.085 177.132 200.099 177.146C200.211 177.236 200.329 177.313 200.441 177.397C201.9 178.451 203.394 179.386 204.916 180.189C205.279 180.392 205.656 180.573 206.019 180.755C207.841 181.634 209.677 182.339 211.534 182.842C212.036 182.981 212.532 183.107 213.034 183.212C214.654 183.561 216.266 183.763 217.872 183.812C218.661 183.833 219.443 183.812 220.225 183.763C223.038 183.561 225.781 182.856 228.364 181.592C231.303 180.154 233.795 178.116 235.826 175.61C235.833 175.61 235.826 175.603 235.826 175.603C243.547 166.081 244.51 149.893 237.216 134.989C229.914 120.078 216.539 110.912 204.274 111.178C204.274 111.178 204.274 111.178 204.267 111.178C203.345 111.199 202.438 111.262 201.537 111.394C199.268 111.708 197.063 112.371 194.961 113.398C192.378 114.661 190.145 116.392 188.267 118.487C188.253 118.5 188.246 118.507 188.232 118.521C187.75 119.059 187.289 119.624 186.85 120.218C186.829 120.246 186.808 120.281 186.78 120.309C185.97 121.411 185.244 122.591 184.609 123.848C184.497 124.057 184.393 124.281 184.281 124.504C184.057 124.958 183.848 125.425 183.653 125.907C183.646 125.907 183.653 125.914 183.653 125.914C183.003 127.485 182.473 129.139 182.068 130.87C182.012 131.094 181.97 131.317 181.914 131.554C181.831 131.952 181.754 132.357 181.684 132.776C181.649 132.985 181.614 133.188 181.586 133.39C181.391 134.598 181.265 135.834 181.188 137.083C181.167 137.53 181.146 137.984 181.139 138.444C181.126 138.807 181.126 139.177 181.133 139.547C181.14 140.678 181.181 141.816 181.286 142.975C181.356 143.764 181.447 144.56 181.558 145.355C181.607 145.697 181.656 146.039 181.712 146.381C181.719 146.437 181.733 146.486 181.74 146.542C181.831 147.073 181.928 147.61 182.04 148.141C182.319 149.53 182.668 150.926 183.087 152.322C183.178 152.629 183.283 152.943 183.38 153.257C183.38 153.264 183.38 153.271 183.38 153.278C183.457 153.523 183.541 153.767 183.632 154.011C184.26 155.868 185.014 157.725 185.886 159.554C185.97 159.701 186.047 159.854 186.117 160.001Z" fill="#E8B022"/>
<path d="M186.118 160C186.188 160.147 186.265 160.294 186.342 160.44C186.551 160.866 186.768 161.292 186.991 161.704C187.85 163.295 188.771 164.824 189.762 166.269C189.951 166.548 190.146 166.821 190.335 167.093C190.419 167.205 190.495 167.309 190.565 167.421C190.963 167.959 191.361 168.489 191.773 168.999C192.548 169.99 193.35 170.925 194.188 171.826C194.425 172.084 194.663 172.335 194.907 172.58C194.998 172.677 195.096 172.775 195.193 172.866C195.354 173.033 195.514 173.194 195.682 173.355C196.827 174.478 198.014 175.526 199.228 176.475C199.507 176.691 199.78 176.908 200.059 177.11C200.073 177.124 200.087 177.131 200.101 177.145C200.212 177.236 200.331 177.313 200.443 177.396C201.902 178.451 203.396 179.386 204.917 180.189C205.28 180.391 205.657 180.573 206.02 180.754C207.842 181.634 209.678 182.339 211.535 182.841C212.038 182.981 212.533 183.107 213.036 183.211C214.656 183.56 216.268 183.763 217.874 183.812C218.663 183.833 219.444 183.812 220.226 183.763C223.039 183.56 225.783 182.855 228.366 181.592L235.207 178.241C235.954 177.878 236.317 177.047 236.114 176.273C236.086 176.161 236.044 176.049 235.996 175.944L204.108 110.828C204.059 110.724 203.996 110.626 203.926 110.535C203.919 110.521 203.912 110.514 203.905 110.507C203.41 109.9 202.551 109.683 201.818 110.046L194.977 113.397C192.394 114.661 190.16 116.392 188.282 118.486C188.268 118.5 188.261 118.507 188.248 118.521C187.766 119.059 187.305 119.624 186.865 120.217C186.844 120.245 186.823 120.28 186.796 120.308C185.986 121.411 185.26 122.591 184.625 123.847C184.513 124.057 184.408 124.28 184.296 124.504C184.073 124.957 183.864 125.425 183.668 125.907C183.661 125.907 183.668 125.914 183.668 125.914C183.019 127.484 182.488 129.139 182.084 130.87C182.028 131.093 181.986 131.317 181.93 131.554C181.846 131.952 181.769 132.357 181.7 132.776C181.665 132.985 181.63 133.188 181.602 133.39C181.406 134.598 181.281 135.833 181.204 137.083C181.183 137.53 181.162 137.983 181.155 138.444C181.141 138.807 181.141 139.177 181.148 139.547C181.155 140.678 181.197 141.816 181.302 142.975C181.372 143.763 181.462 144.559 181.574 145.355C181.623 145.697 181.672 146.039 181.728 146.381C181.735 146.437 181.748 146.486 181.755 146.542C181.846 147.072 181.944 147.61 182.056 148.14C182.335 149.529 182.684 150.926 183.103 152.322C183.193 152.629 183.298 152.943 183.396 153.257C183.396 153.264 183.396 153.271 183.396 153.278C183.473 153.522 183.556 153.767 183.647 154.011C184.275 155.868 185.029 157.725 185.902 159.554C185.972 159.7 186.049 159.854 186.118 160Z" fill="#E8B022"/>
<path opacity="0.2" d="M186.118 160C186.188 160.147 186.264 160.294 186.341 160.44L217.538 145.166C217.782 145.048 217.88 144.748 217.761 144.503C217.643 144.259 217.343 144.161 217.098 144.28L185.901 159.554C185.971 159.7 186.048 159.854 186.118 160Z" fill="white"/>
<path opacity="0.2" d="M186.788 120.301L201.769 112.964C201.839 112.93 201.901 112.881 201.943 112.818C202.055 112.678 202.083 112.483 201.999 112.301C201.894 112.092 201.664 111.987 201.455 112.036C201.413 112.043 201.378 112.057 201.343 112.071L188.268 118.479C188.254 118.493 188.247 118.5 188.233 118.514C187.751 119.052 187.291 119.617 186.851 120.21C186.83 120.238 186.816 120.273 186.788 120.301Z" fill="white"/>
<path opacity="0.2" d="M183.669 125.9L203.376 116.245C203.62 116.127 203.725 115.834 203.599 115.582C203.48 115.338 203.18 115.24 202.936 115.359L184.29 124.49C184.067 124.95 183.864 125.418 183.669 125.9Z" fill="white"/>
<path opacity="0.2" d="M181.691 132.762L205.698 121.006C205.942 120.888 206.04 120.587 205.921 120.343C205.803 120.099 205.503 120.001 205.258 120.12L181.922 131.547C181.845 131.945 181.768 132.35 181.691 132.762Z" fill="white"/>
<path opacity="0.2" d="M181.148 139.533L208.275 126.249C208.52 126.13 208.617 125.83 208.499 125.586C208.38 125.334 208.08 125.244 207.835 125.362L181.155 138.43C181.141 138.8 181.141 139.163 181.148 139.533Z" fill="white"/>
<path opacity="0.2" d="M181.727 146.367L211.088 131.987C211.332 131.868 211.43 131.568 211.311 131.324C211.193 131.079 210.892 130.982 210.648 131.1L181.566 145.341C181.615 145.683 181.664 146.025 181.727 146.367Z" fill="white"/>
<path opacity="0.2" d="M183.396 153.264L214.132 138.214C214.167 138.193 214.195 138.172 214.23 138.144C214.397 138.011 214.46 137.76 214.355 137.551C214.237 137.306 213.937 137.209 213.692 137.327L183.096 152.315C183.186 152.622 183.291 152.936 183.389 153.25C183.389 153.257 183.396 153.264 183.396 153.264Z" fill="white"/>
<path opacity="0.2" d="M217.874 183.812C218.663 183.833 219.445 183.812 220.227 183.763L233.301 177.362C233.546 177.243 233.643 176.943 233.525 176.698C233.406 176.447 233.106 176.356 232.862 176.475L217.874 183.812Z" fill="white"/>
<path opacity="0.2" d="M211.534 182.841C212.037 182.981 212.532 183.107 213.035 183.211L231.688 174.074C231.932 173.955 232.03 173.655 231.911 173.41C231.792 173.159 231.492 173.061 231.248 173.18L211.534 182.841Z" fill="white"/>
<path opacity="0.2" d="M204.916 180.189C205.279 180.391 205.656 180.573 206.019 180.754L229.363 169.32C229.607 169.201 229.705 168.901 229.586 168.657C229.467 168.412 229.167 168.314 228.923 168.433L204.916 180.189Z" fill="white"/>
<path opacity="0.2" d="M199.228 176.475C199.507 176.691 199.779 176.908 200.058 177.11C200.072 177.124 200.086 177.131 200.1 177.145L226.787 164.077C226.857 164.042 226.92 163.994 226.962 163.931C227.074 163.791 227.102 163.589 227.018 163.414C226.899 163.163 226.599 163.072 226.355 163.191L199.228 176.475Z" fill="white"/>
<path opacity="0.2" d="M194.188 171.819C194.426 172.077 194.663 172.328 194.907 172.573L223.989 158.332C224.233 158.213 224.331 157.913 224.213 157.669C224.094 157.424 223.794 157.327 223.549 157.445L194.188 171.819Z" fill="white"/>
<path opacity="0.2" d="M189.763 166.269C189.951 166.548 190.147 166.821 190.335 167.093L220.932 152.105C221.176 151.987 221.274 151.686 221.155 151.442C221.036 151.191 220.736 151.093 220.492 151.212L189.763 166.269Z" fill="white"/>
<path opacity="0.2" d="M201.784 111.883L201.1 110.479C200.744 110.591 200.374 110.745 200.011 110.919L194.971 113.383C192.388 114.647 190.154 116.378 188.276 118.472C188.262 118.486 188.255 118.493 188.241 118.507L201.784 111.883Z" fill="white"/>
<path opacity="0.2" d="M184.617 123.841L203.186 114.745L202.188 112.706L186.858 120.218C186.837 120.245 186.816 120.28 186.788 120.308C185.978 121.404 185.252 122.584 184.617 123.841Z" fill="white"/>
<path opacity="0.2" d="M182.076 130.863L205.469 119.408L203.821 116.036L183.661 125.907C183.012 127.478 182.481 129.132 182.076 130.863Z" fill="white"/>
<path opacity="0.2" d="M181.203 137.076L207.758 124.071L206.376 121.25L181.601 133.383C181.406 134.591 181.273 135.819 181.203 137.076Z" fill="white"/>
<path opacity="0.2" d="M181.302 142.961L210.104 128.86L208.722 126.04L181.155 139.54C181.148 140.664 181.197 141.809 181.302 142.961Z" fill="white"/>
<path opacity="0.2" d="M182.049 148.133L212.283 133.327L211.592 131.917L181.749 146.535C181.84 147.065 181.944 147.596 182.049 148.133Z" fill="white"/>
<path opacity="0.2" d="M183.646 154.004L214.913 138.688L214.564 137.983L183.388 153.25C183.388 153.257 183.388 153.264 183.388 153.271C183.471 153.509 183.555 153.76 183.646 154.004Z" fill="white"/>
<path opacity="0.2" d="M188.806 164.803C188.869 164.908 188.931 165.013 189.001 165.117C189.253 165.508 189.504 165.892 189.762 166.269C189.811 166.339 189.86 166.402 189.902 166.472C189.972 166.569 190.041 166.667 190.104 166.765C190.181 166.87 190.258 166.981 190.328 167.093C190.411 167.205 190.488 167.309 190.558 167.421L190.565 167.414C190.956 167.952 191.354 168.482 191.766 168.999C191.801 169.041 191.835 169.082 191.87 169.131C192.122 169.452 192.38 169.767 192.645 170.074C192.82 170.283 192.994 170.493 193.169 170.695C193.406 170.967 193.65 171.239 193.895 171.505C193.992 171.609 194.083 171.721 194.181 171.826C194.258 171.91 194.335 171.986 194.404 172.063C194.53 172.196 194.649 172.321 194.774 172.454C194.816 172.496 194.858 172.545 194.9 172.587C194.991 172.684 195.088 172.782 195.186 172.873H195.193C195.354 173.034 195.514 173.201 195.675 173.362C195.689 173.376 195.696 173.383 195.71 173.397C196.24 173.913 196.778 174.416 197.322 174.897C197.448 175.009 197.574 175.114 197.699 175.225C198.118 175.588 198.537 175.938 198.97 176.28C199.053 176.349 199.137 176.426 199.228 176.489C199.347 176.587 199.472 176.67 199.591 176.768C199.724 176.873 199.856 176.971 199.996 177.075C200.017 177.089 200.038 177.11 200.059 177.124C200.191 177.222 200.324 177.313 200.45 177.41L200.436 177.417C200.631 177.557 200.827 177.69 201.022 177.822C201.106 177.878 201.19 177.941 201.273 177.997C201.678 178.269 202.083 178.541 202.488 178.8C202.516 178.821 202.551 178.841 202.579 178.855C203.012 179.128 203.444 179.386 203.877 179.637C204.031 179.728 204.191 179.812 204.345 179.896C204.533 180 204.715 180.105 204.903 180.203C204.987 180.245 205.071 180.286 205.148 180.328C205.294 180.405 205.441 180.482 205.587 180.552C205.727 180.622 205.867 180.698 205.999 180.768C206.181 180.859 206.369 180.936 206.558 181.019C206.711 181.089 206.872 181.166 207.025 181.236C207.333 181.368 207.64 181.501 207.94 181.627C208.114 181.697 208.289 181.773 208.463 181.843C208.75 181.955 209.036 182.06 209.329 182.164C209.525 182.234 209.727 182.304 209.922 182.374C210.167 182.457 210.404 182.527 210.648 182.604C210.907 182.681 211.158 182.765 211.416 182.834C211.451 182.841 211.486 182.855 211.521 182.862C211.64 182.897 211.758 182.918 211.87 182.946C212.212 183.037 212.554 183.121 212.896 183.197C212.938 183.204 212.98 183.218 213.022 183.225C213.273 183.281 213.524 183.323 213.776 183.372C213.922 183.4 214.069 183.435 214.209 183.456C214.655 183.533 215.095 183.595 215.542 183.651C215.661 183.665 215.786 183.672 215.905 183.686C216.24 183.721 216.582 183.756 216.917 183.777C217.057 183.784 217.196 183.791 217.336 183.798C217.51 183.805 217.678 183.819 217.853 183.826C217.999 183.833 218.146 183.826 218.292 183.826C218.446 183.826 218.599 183.826 218.753 183.826C219.06 183.826 219.367 183.812 219.675 183.798C219.814 183.791 219.954 183.791 220.093 183.777C220.128 183.777 220.17 183.777 220.205 183.77C220.589 183.742 220.973 183.707 221.35 183.658C221.455 183.644 221.552 183.63 221.65 183.616C221.978 183.574 222.306 183.519 222.634 183.463C222.767 183.442 222.9 183.414 223.032 183.386C223.374 183.316 223.716 183.239 224.058 183.156C224.135 183.135 224.219 183.121 224.303 183.1C224.715 182.995 225.119 182.869 225.524 182.737C225.636 182.702 225.755 182.66 225.866 182.618C226.174 182.513 226.481 182.402 226.788 182.276C226.907 182.227 227.025 182.185 227.144 182.129C227.549 181.962 227.947 181.787 228.338 181.592L233.378 179.128C235.06 178.304 236.198 177.089 236.086 176.273C236.079 176.189 236.058 176.119 236.023 176.049L204.031 110.724C203.996 110.654 203.954 110.591 203.891 110.535C203.884 110.521 203.877 110.514 203.87 110.507C203.395 110.074 202.306 110.081 201.064 110.486L218.572 146.235L188.017 161.201C187.717 160.643 187.424 160.077 187.144 159.498C178.042 140.908 181.783 120.315 195.472 113.153C195.291 113.23 195.116 113.313 194.942 113.397C180.827 120.308 176.869 141.181 186.09 160.008C186.37 160.587 186.663 161.152 186.963 161.711C186.97 161.718 186.97 161.732 186.977 161.739C186.984 161.753 186.998 161.774 187.005 161.788C187.263 162.262 187.528 162.73 187.801 163.198C187.898 163.358 187.989 163.526 188.087 163.686C188.338 164.056 188.568 164.433 188.806 164.803ZM201.12 176.587L227.214 163.805L227.402 164.189L201.511 176.866C201.378 176.775 201.252 176.684 201.12 176.587ZM196.247 172.342L224.596 158.458L224.882 159.044L196.729 172.831C196.568 172.678 196.408 172.51 196.247 172.342ZM191.633 166.897L221.552 152.245L222.411 153.997L192.834 168.482C192.422 167.966 192.024 167.435 191.633 166.897Z" fill="white"/>
<path d="M192.973 156.643C202.194 175.477 221.112 185.138 235.22 178.227C249.335 171.316 253.3 150.451 244.071 131.617C234.843 112.783 215.932 103.115 201.817 110.033C187.716 116.937 183.751 137.809 192.973 156.643Z" fill="#E8B022"/>
<path opacity="0.2" d="M232.54 172.757C244.385 166.956 247.711 149.438 239.969 133.628C232.227 117.818 216.348 109.704 204.503 115.505C192.658 121.306 189.332 138.824 197.074 154.634C204.816 170.444 220.694 178.557 232.54 172.757Z" fill="white"/>
<path opacity="0.2" d="M192.971 156.643C202.193 175.477 221.111 185.138 235.219 178.227C244.692 173.585 249.592 162.66 248.999 150.283C248.712 144.224 247.107 137.809 244.07 131.617C234.849 112.783 215.931 103.115 201.816 110.033C189.851 115.889 185.181 131.792 189.663 147.98C189.663 147.987 189.663 147.987 189.663 147.987C190.472 150.877 191.568 153.781 192.971 156.643ZM193.83 156.217C192.937 154.388 192.169 152.531 191.526 150.681C185.788 134.095 190.116 117.181 202.381 111.171C216.022 104.49 234.304 113.83 243.212 132.036C246.611 138.982 248.161 146.214 248.014 152.873C247.777 163.659 243.093 172.95 234.66 177.082C221.02 183.763 202.744 174.423 193.83 156.217Z" fill="white"/>
<path opacity="0.2" d="M193.14 141.369C192.232 130.465 196.351 120.699 204.623 116.65C216.47 110.849 232.351 118.968 240.085 134.772C242.235 139.163 243.534 143.687 244.029 148.057C243.645 143.338 242.312 138.402 239.974 133.62C232.232 117.816 216.358 109.697 204.512 115.498C195.946 119.694 191.835 130.011 193.14 141.369Z" fill="white"/>
<path opacity="0.2" d="M192.972 156.643C202.193 175.477 221.111 185.138 235.219 178.227C244.692 173.585 249.592 162.66 248.999 150.284C248.713 151.107 248.385 151.973 248.015 152.88C247.777 163.666 243.093 172.957 234.66 177.09C221.02 183.77 202.745 174.423 193.83 156.224C192.937 154.395 192.169 152.538 191.527 150.689C190.856 149.739 190.235 148.832 189.677 147.98C190.473 150.877 191.569 153.781 192.972 156.643Z" fill="white"/>
<g opacity="0.2">
<path opacity="0.2" d="M227.987 158.863L230.019 163.568L227.205 163.861L225.984 162.967L225.188 159.198C221.719 159.296 216.658 157.39 214.061 155.687L214.989 152.182C217.397 153.69 220.497 154.639 223.226 154.667L219.596 146.27C217.034 145.83 211.939 144.315 209.809 141.976C209.809 141.976 209.063 140.964 208.043 138.605C206.193 134.326 207.115 130.326 212.19 129.146L211.729 123.219L212.951 124.113L214.968 128.769C217.384 128.685 221.816 129.718 221.816 129.718L223.038 130.612L223.464 134.996C221.083 133.879 218.856 133.369 216.93 133.299L220.595 141.781C223.282 142.242 226.905 143.421 226.905 143.421C229.181 144.88 231.254 147.205 232.197 149.397C234.06 153.676 233.083 157.641 227.987 158.863ZM217.411 141.188L214.179 133.718C211.946 134.43 211.569 136.05 212.364 137.893C213.237 139.91 215.108 140.678 217.411 141.188ZM227.98 150.228C227.094 148.168 225.167 147.359 222.801 146.863L226.012 154.29C228.315 153.571 228.762 152.036 227.98 150.228Z" fill="white"/>
</g>
<path d="M226.775 157.969L228.807 162.674L225.993 162.968L223.976 158.304C220.507 158.402 216.667 157.39 214.07 155.687L213.777 151.289C216.186 152.797 219.285 153.746 222.014 153.774L218.384 145.376C214.084 144.636 209.351 143.547 206.831 137.711C204.982 133.432 205.903 129.432 210.978 128.252L208.926 123.506L211.739 123.212L213.756 127.869C216.367 127.778 219.341 128.434 221.826 129.711L222.252 134.095C219.871 132.978 217.645 132.469 215.718 132.399L219.383 140.881C223.683 141.621 228.465 142.661 230.985 148.497C232.842 152.79 231.871 156.748 226.775 157.969ZM216.193 140.294L212.96 132.825C210.727 133.537 210.35 135.156 211.145 136.999C212.018 139.017 213.896 139.792 216.193 140.294ZM226.768 149.334C225.882 147.275 223.955 146.465 221.589 145.97L224.8 153.397C227.096 152.678 227.543 151.142 226.768 149.334Z" fill="#E8B022"/>
<path opacity="0.1" d="M246.396 137.153L190.536 122.514C192.826 116.993 196.637 112.567 201.824 110.026C215.939 103.115 234.857 112.783 244.078 131.617C244.972 133.446 245.747 135.296 246.396 137.153Z" fill="white"/>
<defs>
<clipPath id="clip0_3_8768">
<rect width="64.6507" height="7" fill="white" transform="translate(108 75.8003)"/>
</clipPath>
<clipPath id="clip1_3_8768">
<rect width="24.24" height="15.24" fill="white" transform="translate(132 92.002)"/>
</clipPath>
</defs>
</svg>
